# xmcd
#
# Track frame offsets:
#	150
#	9421
#	21009
#	32695
#	43465
#	52943
#	63826
#	73869
#	86560
#	98178
#	107368
#	120336
#	132884
#	145013
#	154029
#	167200
#	178596
#	192979
#	204301
#	215739
#	228044
#	237410
#
# Disc length: 3310 seconds
#
# Revision: 0
# Processed by: cddbd v1.5.2PL0 Copyright (c) Steve Scherf et al.
# Submitted via: EasyCDDAExtractor 8.2.3.1
#
DISCID=250cec16
DTITLE=Chet Atkins - Chet and Picks The Best
DYEAR=1967
DGENRE=Instrumental
TTITLE0=Foggy Mountain Top
TTITLE1=Truck Drivers Blues
TTITLE2=Bandera
TTITLE3=Make The World Go Away
TTITLE4=Oh Baby Of Mine (I Get So Lonely)
TTITLE5=Oklahoma Hills
TTITLE6=Just Out Of Reach
TTITLE7=Wabash Cannon Ball
TTITLE8=Release Me (And Let Me Love Again)
TTITLE9=Goin' Down The Road (Feelin' Bad)
TTITLE10=You'll Never Walk Alone
TTITLE11=Lovely Weather
TTITLE12=Insensatez (How Intensive)
TTITLE13=Coloney Bogey
TTITLE14=Nuages
TTITLE15=Anna (El Negro Zumbon)
TTITLE16=Battle Hymn Of The Republic
TTITLE17=All
TTITLE18=El Paso
TTITLE19=Tears
TTITLE20=I Wish I Knew
TTITLE21=Ay Ay Ay
EXTD=
EXTT0=
EXTT1=
EXTT2=
EXTT3=
EXTT4=
EXTT5=
EXTT6=
EXTT7=
EXTT8=
EXTT9=
EXTT10=
EXTT11=
EXTT12=
EXTT13=
EXTT14=
EXTT15=
EXTT16=
EXTT17=
EXTT18=
EXTT19=
EXTT20=
EXTT21=
PLAYORDER=
